<svg width="960" height="173" viewBox="0 0 960 173" fill="none" xmlns="http://www.w3.org/2000/svg">
<path d="M0 135L22.8 138.7C45.7 142.3 91.3 149.7 137 156.8C182.7 164 228.3 171 274 172C319.7 173 365.3 168 411.2 157.8C457 147.7 503 132.3 548.8 135.3C594.7 138.3 640.3 159.7 686 166.3C731.7 173 777.3 165 823 154.8C868.7 144.7 914.3 132.3 937.2 126.2L960 120V0H937.2C914.3 0 868.7 0 823 0C777.3 0 731.7 0 686 0C640.3 0 594.7 0 548.8 0C503 0 457 0 411.2 0C365.3 0 319.7 0 274 0C228.3 0 182.7 0 137 0C91.3 0 45.7 0 22.8 0H0V135Z" fill="#AB6FF7"/>
<path d="M0 82L22.8 84.2C45.7 86.3 91.3 90.7 137 91.7C182.7 92.7 228.3 90.3 274 97C319.7 103.7 365.3 119.3 411.2 119.2C457 119 503 103 548.8 93.7C594.7 84.3 640.3 81.7 686 83C731.7 84.3 777.3 89.7 823 89.8C868.7 90 914.3 85 937.2 82.5L960 80V0H937.2C914.3 0 868.7 0 823 0C777.3 0 731.7 0 686 0C640.3 0 594.7 0 548.8 0C503 0 457 0 411.2 0C365.3 0 319.7 0 274 0C228.3 0 182.7 0 137 0C91.3 0 45.7 0 22.8 0H0V82Z" fill="#CB9FFB"/>
<path d="M0 53L22.8 61.7C45.7 70.3 91.3 87.7 137 90C182.7 92.3 228.3 79.7 274 78.8C319.7 78 365.3 89 411.2 89.7C457 90.3 503 80.7 548.8 73C594.7 65.3 640.3 59.7 686 58.7C731.7 57.7 777.3 61.3 823 67.3C868.7 73.3 914.3 81.7 937.2 85.8L960 90V0H937.2C914.3 0 868.7 0 823 0C777.3 0 731.7 0 686 0C640.3 0 594.7 0 548.8 0C503 0 457 0 411.2 0C365.3 0 319.7 0 274 0C228.3 0 182.7 0 137 0C91.3 0 45.7 0 22.8 0H0V53Z" fill="#E7CFFE"/>
<path d="M0 24L22.8 27.7C45.7 31.3 91.3 38.7 137 38.8C182.7 39 228.3 32 274 32.7C319.7 33.3 365.3 41.7 411.2 46.3C457 51 503 52 548.8 49.2C594.7 46.3 640.3 39.7 686 35.8C731.7 32 777.3 31 823 36.3C868.7 41.7 914.3 53.3 937.2 59.2L960 65V0H937.2C914.3 0 868.7 0 823 0C777.3 0 731.7 0 686 0C640.3 0 594.7 0 548.8 0C503 0 457 0 411.2 0C365.3 0 319.7 0 274 0C228.3 0 182.7 0 137 0C91.3 0 45.7 0 22.8 0H0V24Z" fill="white"/>
</svg>
